inDegrees=no
num_controls=7
num_derivatives=13
num_iterations=138
num_multipliers=7
num_parameters=0
num_slacks=7
num_states=26
objective=5.124612
objective_accelerations=0.398557
objective_balance=0.007826
objective_effort=0.359193
objective_height=4.289324
objective_ligament=0.069712
solver_duration=1161.900876
status=Solve_Succeeded
success=true
DataType=double
version=3
OpenSimVersion=4.4-2022-07-23-0e9fedc
endheader
time	/jointset/ground_pelvis/pelvis_tilt/value	/jointset/ground_pelvis/pelvis_tx/value	/jointset/ground_pelvis/pelvis_ty/value	/jointset/hip_r/hip_flexion_r/value	/jointset/hip_r/hip_adduction_r/value	/jointset/hip_r/hip_rotation_r/value	/jointset/back/lumbar_extension/value	/jointset/patellofemoral_r/patellar_flexion_r/value	/jointset/knee_r/knee_flexion_r/value	/jointset/knee_r/knee_adduction_r/value	/jointset/knee_r/knee_rotation_r/value	/jointset/ankle_r/ankle_angle_r/value	/jointset/subtalar_r/subtalar_angle_r/value	/jointset/ground_pelvis/pelvis_tilt/speed	/jointset/ground_pelvis/pelvis_tx/speed	/jointset/ground_pelvis/pelvis_ty/speed	/jointset/hip_r/hip_flexion_r/speed	/jointset/hip_r/hip_adduction_r/speed	/jointset/hip_r/hip_rotation_r/speed	/jointset/back/lumbar_extension/speed	/jointset/patellofemoral_r/patellar_flexion_r/speed	/jointset/knee_r/knee_flexion_r/speed	/jointset/knee_r/knee_adduction_r/speed	/jointset/knee_r/knee_rotation_r/speed	/jointset/ankle_r/ankle_angle_r/speed	/jointset/subtalar_r/subtalar_angle_r/speed	/forceset/tau_hip_flexion_r	/forceset/tau_hip_adduction_r	/forceset/tau_hip_rotation_r	/forceset/tau_knee_flexion_r	/forceset/tau_ankle_angle_r	/forceset/tau_subtalar_angle_r	/forceset/tau_lumbar_extension	lambda_cid13_p0	lambda_cid14_p0	lambda_cid14_p1	lambda_cid14_p2	lambda_cid14_p3	lambda_cid14_p4	lambda_cid14_p5	/jointset/ground_pelvis/pelvis_tilt/accel	/jointset/ground_pelvis/pelvis_tx/accel	/jointset/ground_pelvis/pelvis_ty/accel	/jointset/hip_r/hip_flexion_r/accel	/jointset/hip_r/hip_adduction_r/accel	/jointset/hip_r/hip_rotation_r/accel	/jointset/back/lumbar_extension/accel	/jointset/patellofemoral_r/patellar_flexion_r/accel	/jointset/knee_r/knee_flexion_r/accel	/jointset/knee_r/knee_adduction_r/accel	/jointset/knee_r/knee_rotation_r/accel	/jointset/ankle_r/ankle_angle_r/accel	/jointset/subtalar_r/subtalar_angle_r/accel	gamma_cid13_p0	gamma_cid14_p0	gamma_cid14_p1	gamma_cid14_p2	gamma_cid14_p3	gamma_cid14_p4	gamma_cid14_p5
0	-0.0001320935984257329	0.1279828901101638	0.9343415415607792	0.1934208783645156	-0.2163774748440041	-0.241910209109529	-0.2903791543005566	0.2311793314021751	0.2311793314021609	0.1068309252760172	0.1664637511061305	0.08934340440958972	0.07852014158600741	0	0	0	0	0	0	0	0	0	0	0	0	0	0.0971859616623249	-0.0603102091259568	0.0005119437832709488	-0.2432353111770771	0.1309960739778488	-0.06087660969549627	-0.01497325116164961	-29.65360977853527	-3.177352101356275	-22.78200330452185	-0.7582966127269682	-7.316770761241401	-617.9420700475039	58.79475624298851	-0.8841219612456674	-1.321689612771726	-0.651751318520093	7.258216285358433	0.1558318125861005	1.52192568993261	-5.67773037267586	8.382228485369311	8.382228485370407	-2.581637177758894	0.3910224953640095	2.65593610705366	0.9784634210739211	2.937470848112921e-08	1.649372258582118e-08	-2.220702873903997e-07	1.736202108606714e-07	9.56456981077141e-09	1.03326310846261e-07	-2.128808048393965e-07
0.01	-0.0001720065363577748	0.1279178230108646	0.9343099216944148	0.1937736581259213	-0.2163681429192159	-0.2418347506032589	-0.2906634396526552	0.2315901525207738	0.231590152520723	0.1067008062947477	0.1664810044807838	0.08947412061339245	0.07857035504786421	-0.007958248961250285	-0.01293009188968767	-0.00630327265425949	0.07020550410640167	0.001849094108266122	0.01499949893547846	-0.05647268151286158	0.08176981709710106	0.08176981709710396	-0.02588014957932675	0.003445246653157282	0.02603879353693014	0.009992502333467594	0.09385176496262015	-0.06691441736362407	0.0007570102691336376	-0.2402940542808292	0.1256855787007383	-0.05373304990477844	-0.01186473439458691	-29.65841151915035	-4.53159178714368	-19.74437801514393	-1.439379443515339	-7.209570709583307	-619.4428388924724	64.90699274501807	-0.748026846108392	-1.266167869379673	-0.6164894807821724	6.849150427494568	0.196853004396243	1.475166821835027	-5.574378704086895	8.015191454589688	8.015191454589425	-2.569675167142896	0.3204955381108592	2.562188513214741	1.002100771924097	3.611419394123474e-08	9.013985226502831e-09	-2.566416562370754e-07	2.083567538423526e-07	2.092326081759463e-08	2.768817289935468e-08	-2.564023550797302e-07
0.02	-0.0002907720604221238	0.1277259552142054	0.9342158942531262	0.1948179795192435	-0.2163408390944462	-0.2416120561423372	-0.2915009201525807	0.2328068384368261	0.2328068384368209	0.1063161915537281	0.1665325542796643	0.08986209225980726	0.07871898495954394	-0.01577051722418083	-0.02536013947201457	-0.01248151498481732	0.1383083263813571	0.003594379994522517	0.02944719093012644	-0.1106390295655079	0.1611729595025676	0.1611729595025678	-0.0508991519235772	0.006859284819080835	0.05145108852193661	0.01968328996456636	0.09051756826302783	-0.07351862560133982	0.001002076755573679	-0.2373527973845886	0.1203750834236102	-0.04658949011413455	-0.008756217627406691	-29.67244950539878	-5.821178243845246	-16.70963762202828	-2.103776303205813	-7.096812600427563	-619.920884987401	70.78400748692049	-0.8549258215814318	-1.22168075129984	-0.6267452537797481	6.837679919069248	0.1350701681841414	1.411564301766519	-5.21646368063262	7.908893547042466	7.908893547042436	-2.409407730743607	0.3847807979173012	2.530636396668633	0.9181204806000469	4.285367940134027e-08	1.534247867184478e-09	-2.912130250837512e-07	2.430932968240338e-07	3.228195182441785e-08	-4.794996504755162e-08	-2.999239053200638e-07
0.03	-0.0004870985134735635	0.1274121649194397	0.9340604914746511	0.1965333778624152	-0.2162968221419976	-0.2412476524109011	-0.2928686970572608	0.2348061971815967	0.2348061971815882	0.105686093095647	0.1666181302642661	0.0905010298572964	0.07896276382597932	-0.02345942576374405	-0.03732612869228119	-0.01859481640546086	0.2044417259236112	0.005184940567941872	0.0433760724119645	-0.1625783874363735	0.2383361932354385	0.2383361932354701	-0.07496229231670251	0.01020900367736415	0.07623093717397926	0.02901580495574082	0.0867488518086247	-0.06936504409209134	0.001155460813431042	-0.234212214693353	0.1168900497469257	-0.04743184436807421	-0.005450805985886551	-29.69520677699573	-7.009112421046043	-17.2645938616664	-2.036863076741997	-6.772371499695615	-620.5072258213428	68.90175829582576	-0.720568474941498	-1.173282887504703	-0.6029988360554542	6.451728970661148	0.167444957379329	1.374975312253095	-5.131977249724645	7.565640256004897	7.565640256009864	-2.381050222046427	0.3030778456910314	2.435839185559914	0.9322987491230021	4.268460241323815e-08	-5.64628683683972e-09	-2.777267338602688e-07	2.383388570256605e-07	3.780486791102137e-08	-1.127809686339484e-07	-2.926312783887091e-07
0.04	-0.000759253072890878	0.1269808697564475	0.9338440804319988	0.1989002220007816	-0.2162376203927185	-0.2407456748164787	-0.2947457286225332	0.237566308657627	0.2375663086576175	0.1048201066280009	0.1667358055205927	0.09138460195852162	0.0792981641904759	-0.03093613849517833	-0.04886111311730185	-0.02468316782021097	0.2685974854201613	0.006631339359691662	0.05696196352822921	-0.2124899616836469	0.3133235057521291	0.3133235057522032	-0.09807675384780994	0.01327913917194107	0.1003779892695322	0.03800758957678973	0.08298013535429423	-0.06521146258282018	0.001308844871124582	-0.2310716320020779	0.1134050160702612	-0.04827419862197725	-0.002145394344317078	-29.72579939475492	-8.137730631108282	-17.8235581351849	-1.952869562846583	-6.448453204626208	-620.1533318401981	66.80214499518772	-0.8124866599553551	-1.135479792250908	-0.6217552526010499	6.442151909928533	0.1062378118502161	1.342966228651849	-4.810906955914013	7.473709303806452	7.473709303808636	-2.219671958340009	0.328864125176061	2.404077085370408	0.8499744065748381	4.237308083857504e-08	-1.282065241395064e-08	-2.63249563047711e-07	2.327701701596572e-07	4.320745874153788e-08	-1.773891447077575e-07	-2.842909364641237e-07
0.05	-0.001105443446286408	0.1264363206743644	0.9335667443771626	0.2018992077202958	-0.2161648035933703	-0.2401102636391929	-0.2971113941707393	0.2410655384170093	0.2410655384170025	0.1037279334769664	0.1668834229533186	0.09250635675574545	0.07972161827159238	-0.03827068952666039	-0.05998203710662637	-0.03079079553748581	0.3308819577951734	0.007922456515977403	0.0700305462635552	-0.2603018267137184	0.3861530188026068	0.3861530188026129	-0.1202286280335622	0.01620400049497049	0.1238586624736105	0.04664459120295179	0.07859735498043491	-0.06349193723711626	0.00151713306019774	-0.2275937329509733	0.1083152754702918	-0.04642318773855916	0.001579076155452016	-29.76329011959909	-9.647933331247891	-17.22414570956243	-2.11690263590295	-5.906483096643562	-620.1725308637515	67.06536881112935	-0.6892466376887342	-1.090390088922919	-0.606315389737083	6.073941964874119	0.1391259603711255	1.275389812587445	-4.715128089546718	7.132149735370693	7.132149735359095	-2.193573271140761	0.2682888868999235	2.302918701582971	0.8647548143215192	3.868395964378972e-08	-1.991488688713374e-08	-2.318797241996682e-07	1.588343758717097e-07	4.646260054373891e-08	-2.49373529498836e-07	-2.11277548265168e-07
0.06	-0.001524040792595866	0.1257825640750574	0.9332281222734636	0.2055115075762749	-0.2160793601638783	-0.2393468495312301	-0.2999449387318461	0.2452819787928433	0.2452819787928347	0.1024181159595656	0.1670590873494654	0.09385948953774194	0.08023028072370758	-0.04541753307585826	-0.07070261656207995	-0.03694037759273137	0.3912603127136513	0.009156665386405161	0.08256254966345897	-0.3060657642634752	0.4567656290411747	0.4567656290411009	-0.14160562711723	0.01888853185934652	0.1466535862239417	0.0550492637764964	0.07421457460659703	-0.06177241189143973	0.001725421249179835	-0.2241158338998644	0.1032255348703136	-0.04457217685517605	0.005303546655252296	-29.8064584486022	-11.10338932434142	-16.62643760082036	-2.267768162171469	-5.374086725931234	-619.3381921948685	67.14191649835537	-0.7749451634982304	-1.055410885476973	-0.6301461201951823	6.060928418621762	0.09485615467861121	1.235650361567394	-4.40132145985089	7.030328741424536	7.030328741424348	-2.064696937923117	0.2807981334454276	2.266927194620735	0.8035085960512562	3.485262372815715e-08	-2.700574741909882e-08	-1.997986151185523e-07	8.201996653441725e-08	4.962732343948455e-08	-3.216684914990626e-07	-1.355410844336072e-07
0.07000000000000001	-0.002013440899909827	0.125023654317143	0.9328276466571551	0.2097183384495034	-0.2159822760549439	-0.2384606273782209	-0.3032257592249313	0.2501936889089	0.2501936889088933	0.1008992974943225	0.1672604134595155	0.095437146816859	0.08082132849959162	-0.05243132792580361	-0.08100707299045454	-0.04317041988751288	0.4497888738254909	0.0102580198014923	0.09457597757419713	-0.3497742449788187	0.5252146542488653	0.5252146542487115	-0.1620464734122433	0.0213380057765459	0.1687747655227904	0.06313634164310127	0.06987693206989934	-0.05943489389934696	0.001892364138762181	-0.2215943701672782	0.09934003912892397	-0.0431931795661001	0.009008073539535434	-29.85405055622592	-12.22176003448588	-16.20451719507822	-2.356554202821374	-5.115493017462135	-618.8662160098006	66.88689783242944	-0.6599139681343072	-1.0071137538297	-0.6218496268759806	5.701274436778521	0.1174493083255852	1.168321306327273	-4.306997970769689	6.697921498166214	6.697921498154309	-2.017060184213511	0.2212354278458937	2.169250824913174	0.8076937896181117	2.668133042799572e-08	-3.477979650283224e-08	-1.393311099324776e-07	-2.512673870825e-08	5.018303310472812e-08	-3.889224960660695e-07	-2.643678788488782e-08
0.08	-0.002572042420213628	0.1241638698484816	0.9323643873493475	0.2145009458297176	-0.215874243557174	-0.2374574444860117	-0.3069339418438499	0.2557790356945898	0.2557790356946035	0.09917941422443617	0.1674850769900935	0.09723292339444072	0.08149252433567254	-0.05925781567138766	-0.09087755871146219	-0.04949711589257763	0.5064156141098605	0.01134634315263025	0.1059546975049476	-0.3915381894298736	0.5914929629655553	0.5914929629653223	-0.1818185880641898	0.02355601597329916	0.190277445917486	0.07107887581582803	0.06553928953333633	-0.05709737590720471	0.002059307028186284	-0.2190729064346106	0.09545454338757942	-0.0418141822769478	0.01271260042389277	-29.90459139226265	-13.29066517797399	-15.78345320438074	-2.434332429378368	-4.880801443237253	-617.6321895225409	66.49062992516318	-0.7374837426257101	-0.9686167440038284	-0.649476862251822	5.680564253127806	0.09224994188877048	1.108708765569831	-4.012414206992998	6.596185443224512	6.596185443224469	-1.930950609309763	0.2345053893562502	2.143227413789885	0.7745998572755585	1.823003987721954e-08	-4.259792226732491e-08	-7.703222435253463e-08	-1.342303662673929e-07	5.057041933574575e-08	-4.558512775728685e-07	8.482027206493841e-08
0.09	-0.003198248973167665	0.1232075297828194	0.9318372544335169	0.2198406166983015	-0.2157559860922892	-0.2363433552720275	-0.3110498362213542	0.2620164982536944	0.2620164982536948	0.09726644827666969	0.1677308219878821	0.09924046968638005	0.08224164395845961	-0.06595299380066549	-0.1003195976698346	-0.05595173877107001	0.5612029196459617	0.01229178368915338	0.1167604264119418	-0.4313251538645501	0.6556374400876942	0.6556374400876346	-0.2006366752980717	0.02555217170956033	0.2111210048041187	0.07870594857013068	0.06093099164863325	-0.05485136311334587	0.00223770383015346	-0.2167993256768475	0.09144460388037999	-0.04016418280692077	0.01661471107685282	-29.95661087545877	-14.41186280193874	-15.25068496802571	-2.533533513056155	-4.58994396505266	-616.8148792872688	66.33585516533135	-0.6309488796326569	-0.9213588393952623	-0.6468879771896874	5.330470461111716	0.09365961410015682	1.05107631019391	-3.914507730381373	6.269259022490989	6.269259022517029	-1.836571435568733	0.176025082993389	2.038301953763121	0.7508683677906494	9.480243723619771e-09	-5.079581888495386e-08	-2.605142921648489e-08	-3.042959025697579e-07	5.211245487664718e-08	-5.275570869083387e-07	2.40405845194552e-07
